<svg xmlns="http://www.w3.org/2000/svg" width="32.359" height="36.982" viewBox="0 0 32.359 36.982">
    <defs>
        <style>
            .cls-1{fill:#ff4555}
        </style>
    </defs>
    <path id="bell-regular" d="M31.737 26.168c-1.4-1.5-4.007-3.755-4.007-11.144a11.406 11.406 0 0 0-9.241-11.207V2.311a2.31 2.31 0 1 0-4.62 0v1.506a11.406 11.406 0 0 0-9.241 11.207c0 7.389-2.611 9.645-4.007 11.144A2.257 2.257 0 0 0 0 27.737a2.313 2.313 0 0 0 2.319 2.311H30.04a2.313 2.313 0 0 0 2.319-2.311 2.256 2.256 0 0 0-.622-1.569zm-26.86.412c1.533-2.02 3.208-5.369 3.216-11.515v-.042a8.09 8.09 0 1 1 16.18 0v.042c.008 6.147 1.684 9.5 3.216 11.515zm11.3 10.4a4.622 4.622 0 0 0 4.623-4.621h-9.242a4.622 4.622 0 0 0 4.621 4.623z" class="cls-1" transform="translate(.001)"/>
</svg>
