<?xml version="1.0" encoding="utf-8"?>
<!-- Generator: Adobe Illustrator 23.0.3, SVG Export Plug-In . SVG Version: 6.00 Build 0)  -->
<svg version="1.1" id="레이어_1" xmlns="http://www.w3.org/2000/svg" xmlns:xlink="http://www.w3.org/1999/xlink" x="0px"
	 y="0px" viewBox="0 0 1125 2436" style="enable-background:new 0 0 1125 2436;" xml:space="preserve">
<style type="text/css">
	.st0{fill:none;}
	.st1{fill:#FF4555;}
</style>
<rect id="사각형_693" x="485.5" y="1128" class="st0" width="35" height="35"/>
<path id="패스_208" class="st1" d="M520.4,1159.83l-7.24-7.24c2.02-2.65,3.1-5.89,3.07-9.22c0.05-8.43-6.74-15.31-15.17-15.36
	c-0.06,0-0.13,0-0.19,0c-8.43-0.05-15.31,6.74-15.36,15.17c0,0.06,0,0.13,0,0.19c-0.05,8.43,6.74,15.31,15.17,15.36
	c0.06,0,0.13,0,0.19,0c3.33,0.02,6.57-1.06,9.22-3.07l7.24,7.24L520.4,1159.83z M489.89,1143.36c-0.06-6,4.76-10.92,10.76-10.97
	c0.07,0,0.14,0,0.22,0c6-0.06,10.92,4.76,10.98,10.76c0,0.07,0,0.14,0,0.22c0.06,6-4.76,10.92-10.76,10.97c-0.07,0-0.14,0-0.22,0
	c-6,0.06-10.92-4.76-10.97-10.76C489.89,1143.51,489.89,1143.44,489.89,1143.36z"/>
</svg>
