<?xml version="1.0" encoding="utf-8"?>
<!-- Generator: Adobe Illustrator 23.0.3, SVG Export Plug-In . SVG Version: 6.00 Build 0)  -->
<svg version="1.1" id="레이어_1" xmlns="http://www.w3.org/2000/svg" xmlns:xlink="http://www.w3.org/1999/xlink" x="0px"
	 y="0px" viewBox="0 0 36 36" style="enable-background:new 0 0 36 36;" xml:space="preserve">
<style type="text/css">
	.st0{fill:#FF4555;}
</style>
<path id="패스_208" class="st0" d="M35.4,31.83l-7.24-7.24c2.02-2.65,3.1-5.89,3.07-9.22C31.28,6.93,24.49,0.05,16.06,0
	c-0.06,0-0.13,0-0.19,0C7.43-0.05,0.55,6.74,0.5,15.17c0,0.06,0,0.13,0,0.19C0.45,23.8,7.24,30.68,15.67,30.73c0.06,0,0.13,0,0.19,0
	c3.33,0.02,6.57-1.06,9.22-3.07l7.24,7.24L35.4,31.83z M4.89,15.36c-0.06-6,4.76-10.92,10.76-10.98c0.07,0,0.14,0,0.22,0
	c6-0.06,10.92,4.76,10.98,10.76c0,0.07,0,0.14,0,0.22c0.06,6-4.76,10.92-10.76,10.98c-0.07,0-0.14,0-0.22,0
	c-6,0.06-10.92-4.76-10.98-10.76C4.89,15.51,4.89,15.44,4.89,15.36z"/>
</svg>
