<svg xmlns="http://www.w3.org/2000/svg" width="79.431" height="21.178" viewBox="0 0 79.431 21.178">
    <defs>
        <style>
            .cls-1{fill:#fff}
        </style>
    </defs>
    <g id="야_떳다_로고" data-name="야! 떳다 로고" transform="translate(-164.11 -730.73)">
        <path id="패스_241" d="M164.11 740.607c0-4.083.57-7.051 2.089-8.594a4.644 4.644 0 0 1 6.409 0c1.5 1.543 2.042 4.511 2.042 8.594 0 4.059-.546 7.051-2.042 8.594a4.776 4.776 0 0 1-6.409 0c-1.519-1.544-2.089-4.534-2.089-8.594zm9.566 0c0-3.846-.5-6.6-1.757-7.953a3.555 3.555 0 0 0-5.034 0c-1.305 1.353-1.757 4.107-1.757 7.953s.451 6.576 1.757 7.952a3.615 3.615 0 0 0 5.034 0c1.258-1.376 1.757-4.106 1.757-7.952zm6.837-9.851v5.556h3.513v.9h-3.513v6.433h3.513v.879h-3.513v7.121h-1v-20.89z" class="cls-1" data-name="패스 241"/>
        <path id="패스_242" d="M309.824 757.3h-1.164v-2.231h1.164zm-.048-16.332l-.095 10.873h-.881l-.071-10.873v-2.118h1.044z" class="cls-1" data-name="패스 242" transform="translate(-121.287 -6.813)"/>
        <path id="패스_243" d="M398.8 732.052v8.548h1.852a13.054 13.054 0 0 0 4.629-.713v.83a12.413 12.413 0 0 1-5.081.735h-8.5v-10.28h11.964v.879H398.8zm2.042 15.574c-1.259 2.208-4.463 4.012-8.523 4.416v-.879c4.036-.4 8.047-2.73 8.047-5.7v-1.259h1.02v1.259c0 2.943 3.822 5.246 8.047 5.7v.879c-4.179-.428-7.333-2.232-8.593-4.416zM397.8 740.6v-8.546h-5.128v8.546zm5.768-4.083v-.9h4.439v-4.727h1v12.938h-1v-7.311z" class="cls-1" data-name="패스 243" transform="translate(-190.962 -.134)"/>
        <path id="패스_244" d="M544.16 750.309h-8.95v-19.017h9.568v.9h-8.546v17.211h8.024a8.814 8.814 0 0 0 6.1-2.065V730.89h1v9.14h3.562v.879h-3.562v10.9h-1v-3.562c-1.21 1.302-3.631 2.062-6.196 2.062z" class="cls-1" data-name="패스 244" transform="translate(-311.376 -.134)"/>
    </g>
</svg>
