<?xml version="1.0" encoding="utf-8"?>
<!-- Generator: Adobe Illustrator 23.0.3, SVG Export Plug-In . SVG Version: 6.00 Build 0)  -->
<svg version="1.1" id="레이어_1" xmlns="http://www.w3.org/2000/svg" xmlns:xlink="http://www.w3.org/1999/xlink" x="0px"
	 y="0px" viewBox="0 0 36 36" style="enable-background:new 0 0 36 36;" xml:space="preserve">
<style type="text/css">
	.st0{fill:#FFFFFF;}
	.st1{fill:none;}
	.st2{fill:#181818;}
</style>
<circle id="타원_291" class="st0" cx="30.91" cy="60.08" r="14.66"/>
<rect x="21.45" y="50.45" class="st1" width="19.42" height="19.42"/>
<path id="합치기_1" class="st2" d="M8.45,27.86v-2.43c0-2.67,4.37-4.85,9.71-4.85s9.71,2.18,9.71,4.85v2.43H8.45z M13.3,13.3
	c0-2.68,2.17-4.85,4.85-4.86s4.85,2.17,4.86,4.85s-2.17,4.85-4.85,4.85c0,0,0,0,0,0C15.48,18.16,13.3,15.98,13.3,13.3z"/>
<rect x="-69.83" y="22" class="st1" width="21" height="5.33"/>
<g>
	<path class="st2" d="M30.91,62.97c-5.27,0-9.55,1.99-9.55,4.44v2.67h19.09v-2.67C40.46,64.96,36.18,62.97,30.91,62.97z"/>
	<circle class="st2" cx="30.91" cy="55.08" r="5"/>
</g>
</svg>
